HIERARCHY
ROOT Hips
{
	OFFSET 0.000000 0.000000 0.000000
	CHANNELS 6 Xposition Yposition Zposition Zrotation Yrotation Xrotation 
	JOINT LHipJoint
	{
		OFFSET 0.000000 0.000000 0.000000
		CHANNELS 3 Zrotation Yrotation Xrotation
		JOINT LeftUpLeg
		{
			OFFSET 1.363060 -1.794630 0.839290
			CHANNELS 3 Zrotation Yrotation Xrotation
			JOINT LeftLeg
			{
				OFFSET 2.448110 -6.726130 0.000000
				CHANNELS 3 Zrotation Yrotation Xrotation
				JOINT LeftFoot
				{
					OFFSET 2.562200 -7.039590 0.000000
					CHANNELS 3 Zrotation Yrotation Xrotation
					JOINT LeftToeBase
					{
						OFFSET 0.157640 -0.433110 2.322550
						CHANNELS 3 Zrotation Yrotation Xrotation
						End Site
						{
							OFFSET 0.000000 0.000000 0.000000
						}
					}
				}
			}
		}
	}
	JOINT RHipJoint
	{
		OFFSET 0.000000 0.000000 0.000000
		CHANNELS 3 Zrotation Yrotation Xrotation
		JOINT RightUpLeg
		{
			OFFSET -1.305520 -1.794630 0.839290
			CHANNELS 3 Zrotation Yrotation Xrotation
			JOINT RightLeg
			{
				OFFSET -2.542530 -6.985550 0.000000
				CHANNELS 3 Zrotation Yrotation Xrotation
				JOINT RightFoot
				{
					OFFSET -2.568260 -7.056230 0.000000
					CHANNELS 3 Zrotation Yrotation Xrotation
					JOINT RightToeBase
					{
						OFFSET -0.164730 -0.452590 2.363150
						CHANNELS 3 Zrotation Yrotation Xrotation
						End Site
						{
							OFFSET 0.000000 0.000000 0.000000
						}
					}
				}
			}
		}
	}
	JOINT LowerBack
	{
		OFFSET 0.000000 0.000000 0.000000
		CHANNELS 3 Zrotation Yrotation Xrotation
		JOINT Spine
		{
			OFFSET 0.028270 2.035590 -0.193380
			CHANNELS 3 Zrotation Yrotation Xrotation
			JOINT Spine1
			{
				OFFSET 0.056720 2.048850 -0.042750
				CHANNELS 3 Zrotation Yrotation Xrotation
				JOINT Neck
				{
					OFFSET 0.000000 0.000000 0.000000
					CHANNELS 3 Zrotation Yrotation Xrotation
					JOINT Neck1
					{
						OFFSET -0.054170 1.746240 0.172020
						CHANNELS 3 Zrotation Yrotation Xrotation
						JOINT Head
						{
							OFFSET 0.104070 1.761360 -0.123970
							CHANNELS 3 Zrotation Yrotation Xrotation
							End Site
							{
								OFFSET 0.000000 0.000000 0.000000
							}
						}
					}
				}
				JOINT LeftShoulder
				{
					OFFSET 0.000000 0.000000 0.000000
					CHANNELS 3 Zrotation Yrotation Xrotation
					JOINT LeftArm
					{
						OFFSET 3.362410 1.200890 -0.311210
						CHANNELS 3 Zrotation Yrotation Xrotation
						JOINT LeftForeArm
						{
							OFFSET 4.983000 -0.000000 -0.000000
							CHANNELS 3 Zrotation Yrotation Xrotation
							JOINT LeftHand
							{
								OFFSET 3.483560 -0.000000 -0.000000
								CHANNELS 3 Zrotation Yrotation Xrotation
								JOINT LeftFingerBase
								{
									OFFSET 0.000000 0.000000 0.000000
									CHANNELS 3 Zrotation Yrotation Xrotation
									JOINT LeftHandIndex1
									{
										OFFSET 0.715260 -0.000000 -0.000000
										CHANNELS 3 Zrotation Yrotation Xrotation
										End Site
										{
											OFFSET 0.000000 0.000000 0.000000
										}
									}
								}
								JOINT LThumb
								{
									OFFSET 0.000000 0.000000 0.000000
									CHANNELS 3 Zrotation Yrotation Xrotation
									End Site
									{
										OFFSET 0.000000 0.000000 0.000000
									}
								}
							}
						}
					}
				}
				JOINT RightShoulder
				{
					OFFSET 0.000000 0.000000 0.000000
					CHANNELS 3 Zrotation Yrotation Xrotation
					JOINT RightArm
					{
						OFFSET -3.136600 1.374050 -0.404650
						CHANNELS 3 Zrotation Yrotation Xrotation
						JOINT RightForeArm
						{
							OFFSET -5.241900 -0.000000 -0.000000
							CHANNELS 3 Zrotation Yrotation Xrotation
							JOINT RightHand
							{
								OFFSET -3.444170 -0.000000 -0.000000
								CHANNELS 3 Zrotation Yrotation Xrotation
								JOINT RightFingerBase
								{
									OFFSET 0.000000 0.000000 0.000000
									CHANNELS 3 Zrotation Yrotation Xrotation
									JOINT RightHandIndex1
									{
										OFFSET -0.622530 -0.000000 -0.000000
										CHANNELS 3 Zrotation Yrotation Xrotation
										End Site
										{
											OFFSET 0.000000 0.000000 0.000000
										}
									}
								}
								JOINT RThumb
								{
									OFFSET 0.000000 0.000000 0.000000
									CHANNELS 3 Zrotation Yrotation Xrotation
									End Site
									{
										OFFSET 0.000000 0.000000 0.000000
									}
								}
							}
						}
					}
				}
			}
		}
	}
}
MOTION
Frames: 8
Frame Time: 0.008333
6.124920 16.575886 -1.708083 -171.795641 28.671446 -158.093979 -8.597272 2.125337 4.534123 -23.996419 -7.263911 -28.512459 -3.019701 -0.944488 17.552039 2.207916 5.142292 -20.999212 178.212900 0.000000 -4.657400 10.554304 -5.240488 -2.113474 8.672513 -21.982467 -5.231513 1.189845 -2.376328 32.793473 0.230021 22.146389 31.018452 13.305800 0.000000 -86.601201 -3.100883 1.062103 -2.639854 -1.520816 1.198192 -3.611331 -6.129162 1.246781 -0.663417 11.271529 -9.090652 -7.173583 -1.747290 -0.137157 0.085142 0.000000 0.000000 0.000000 0.762605 14.372561 0.367243 -58.507632 9.935993 24.640185 -179.405560 -79.723003 179.978184 4.696504 3.147090 0.126270 -0.153538 0.226364 -0.000000 0.000000 0.000000 0.000000 0.000000 0.000000 0.000000 5.803415 -1.134492 0.214959 52.350833 14.885512 17.109404 179.622699 83.408468 -179.999808 -0.875779 3.802567 -0.032949 0.056658 -0.449870 -0.000000 0.000000 0.000000 0.000000 0.000000 0.000000 0.000000 
6.254121 16.474575 -1.817065 -171.838139 28.226330 -158.109122 -8.490475 2.157263 4.727512 -23.909625 -8.354545 -29.008092 -2.924333 -0.739623 20.022609 2.447757 5.743807 -22.658397 177.839200 0.000000 -10.063900 10.749061 -5.151861 -2.261588 7.841269 -22.808433 -6.131215 0.937284 -2.460733 35.628586 0.062447 20.997363 31.605289 12.850100 0.000001 -86.391000 -3.433545 0.886433 -2.745412 -1.582294 1.045997 -3.622361 -6.126256 1.093434 -0.642522 11.628600 -9.127674 -7.257139 -1.756128 -0.136383 0.058327 0.000000 0.000000 0.000000 0.752366 14.381198 0.397052 -58.870707 10.091385 23.655102 -179.412714 -79.826033 179.976854 4.979418 2.959508 0.124941 -0.158021 0.233477 -0.000000 0.000000 0.000000 0.000000 0.000000 0.000000 0.000000 6.165279 -1.189732 0.275817 51.620117 15.365829 16.472686 179.570192 82.692792 -179.997148 -0.447828 3.769365 -0.016699 0.048707 -0.454554 -0.000000 0.000000 0.000000 0.000000 0.000000 0.000000 0.000000 
6.378026 16.375006 -1.925397 -171.936615 27.803816 -158.148253 -8.393310 2.192926 4.887420 -23.893199 -9.343557 -29.639834 -2.834278 -0.494901 22.820914 2.659742 6.232321 -24.265296 177.471300 -0.000000 -14.237000 10.940869 -5.028669 -2.416326 6.947714 -23.573189 -7.123514 0.657309 -2.544751 38.572757 -0.147676 18.428774 31.978931 11.464700 0.000000 -86.360000 -3.760639 0.697490 -2.817913 -1.639855 0.880878 -3.623980 -6.123710 0.927317 -0.613767 11.951171 -9.136096 -7.349952 -1.770441 -0.135788 0.028257 0.000000 0.000000 0.000000 0.645201 14.435327 0.443190 -59.262273 10.048862 22.655665 -179.424014 -80.067044 179.975072 5.330217 2.819369 0.126526 -0.164735 0.239820 -0.000000 0.000000 0.000000 0.000000 0.000000 0.000000 0.000000 6.518607 -1.229899 0.327313 50.963967 15.859895 15.760657 179.522377 82.062446 -179.994145 0.022842 3.833263 0.000940 0.038892 -0.460840 -0.000000 0.000000 0.000000 0.000000 0.000000 0.000000 0.000000 
6.495483 16.279499 -2.033512 -172.075744 27.398139 -158.201439 -8.314934 2.223278 5.008980 -23.936056 -10.202996 -30.331764 -2.747099 -0.231755 25.767499 2.840272 6.616276 -25.779522 177.123300 0.000000 -17.247400 11.117574 -4.865637 -2.565627 6.037027 -24.185193 -8.183783 0.365481 -2.627847 41.580927 -0.407962 14.520146 31.973296 9.182700 -0.000000 -85.801000 -4.057183 0.506541 -2.857447 -1.688862 0.712140 -3.616824 -6.122582 0.757730 -0.579148 12.223447 -9.121442 -7.447781 -1.788457 -0.135326 -0.003594 0.000000 0.000000 0.000000 0.437085 14.526572 0.503552 -59.689051 9.779901 21.666869 -179.441423 -80.478391 179.972766 5.755255 2.739538 0.132022 -0.173730 0.245053 -0.000000 0.000000 0.000000 0.000000 0.000000 0.000000 0.000000 6.836627 -1.258785 0.363799 50.419433 16.321554 14.966158 179.481507 81.525105 -179.991006 0.507007 3.986152 0.020171 0.027689 -0.468542 -0.000000 0.000000 0.000000 0.000000 0.000000 0.000000 0.000000 
6.605487 16.190531 -2.142000 -172.239040 27.004736 -158.256438 -8.261644 2.240084 5.090398 -24.020918 -10.919500 -31.006224 -2.662084 0.027329 28.677666 2.990913 6.913800 -27.181340 176.801899 -0.000000 -19.301600 11.269011 -4.661686 -2.696000 5.155466 -24.559824 -9.291959 0.080977 -2.710334 44.595260 -0.726124 9.540910 31.440177 6.208099 -0.000000 -84.222500 -4.301480 0.324705 -2.868175 -1.725827 0.549111 -3.603247 -6.125205 0.593900 -0.543451 12.433714 -9.088935 -7.544144 -1.809491 -0.135073 -0.035062 0.000000 0.000000 0.000000 0.128274 14.634074 0.574399 -60.155309 9.282068 20.706490 -179.466710 -81.075619 179.969929 6.255687 2.727088 0.142325 -0.184755 0.248945 -0.000000 0.000000 0.000000 0.000000 0.000000 0.000000 0.000000 7.101422 -1.278927 0.381955 50.017455 16.703152 14.089641 179.449354 81.084912 -179.987983 0.970929 4.208682 0.040500 0.015853 -0.477210 -0.000000 0.000000 0.000000 0.000000 0.000000 0.000000 0.000000 
6.707560 16.110439 -2.251509 -172.415919 26.624041 -158.300767 -8.235246 2.238313 5.133153 -24.131559 -11.494297 -31.594954 -2.580959 0.262865 31.384226 3.116724 7.149396 -28.459867 176.507999 0.000000 -20.587900 11.389963 -4.421952 -2.792413 4.340973 -24.627268 -10.438582 -0.178350 -2.794076 47.550081 -1.103650 3.931736 30.314533 2.894400 -0.000000 -81.616500 -4.481171 0.161967 -2.859984 -1.749419 0.400636 -3.586575 -6.134070 0.444553 -0.510189 12.576034 -9.044207 -7.633542 -1.833231 -0.135125 -0.064252 0.000000 0.000000 0.000000 -0.268460 14.741124 0.651192 -60.668159 8.560656 19.794381 -179.501448 -81.866939 179.966567 6.827462 2.780919 0.158229 -0.197367 0.251492 -0.000000 0.000000 0.000000 0.000000 0.000000 0.000000 0.000000 7.303942 -1.292967 0.379281 49.783611 16.961372 13.138919 179.427293 80.742588 -179.985341 1.380381 4.474961 0.060932 0.004250 -0.486237 -0.000000 0.000000 0.000000 0.000000 0.000000 0.000000 0.000000 
6.801494 16.041250 -2.362746 -172.592297 26.259346 -158.317746 -8.237290 2.216004 5.140947 -24.244420 -11.935683 -32.051391 -2.506561 0.460997 33.757522 3.223289 7.344393 -29.611434 176.239900 -0.000000 -21.253300 11.477567 -4.159440 -2.840042 3.627300 -24.336230 -11.630666 -0.402287 -2.883742 50.403513 -1.526312 -1.765994 28.611939 -0.339200 0.000000 -77.641300 -4.584478 0.026980 -2.847283 -1.758451 0.274226 -3.570733 -6.151368 0.317076 -0.481655 12.648122 -8.993262 -7.711539 -1.859727 -0.135592 -0.089536 0.000000 0.000000 0.000000 -0.736593 14.834475 0.728635 -61.233353 7.634455 18.949398 -179.546499 -82.845299 179.962767 7.459702 2.893301 0.180126 -0.210947 0.252857 -0.000000 0.000000 0.000000 0.000000 0.000000 0.000000 0.000000 7.441911 -1.303814 0.354879 49.731549 17.064862 12.128256 179.415972 80.496651 -179.983325 1.703574 4.756866 0.079772 -0.006224 -0.494946 -0.000000 0.000000 0.000000 0.000000 0.000000 0.000000 0.000000 
6.887162 15.984412 -2.476547 -172.749685 25.915653 -158.289004 -8.269062 2.173440 5.118847 -24.332883 -12.256853 -32.348534 -2.441803 0.613345 35.708602 3.315568 7.515091 -30.637481 175.994900 -0.000000 -21.443900 11.530305 -3.891015 -2.825537 3.042033 -23.658217 -12.878401 -0.590804 -2.981027 53.101589 -1.969317 -7.075398 26.489787 -3.143600 -0.000001 -72.817000 -4.601415 -0.073772 -2.846515 -1.751985 0.175299 -3.560023 -6.178772 0.216723 -0.460648 12.651038 -8.940063 -7.773255 -1.889418 -0.136623 -0.109180 0.000000 0.000000 0.000000 -1.255935 14.897929 0.801059 -61.856385 6.544469 18.183595 -179.601558 -83.982943 179.958610 8.133909 3.050346 0.207512 -0.224690 0.253353 -0.000000 0.000000 0.000000 0.000000 0.000000 0.000000 0.000000 7.518317 -1.312198 0.310039 49.863367 16.993370 11.076050 179.415225 80.343299 -179.982128 1.915401 5.027227 0.094525 -0.014797 -0.502699 -0.000000 0.000000 0.000000 0.000000 0.000000 0.000000 0.000000 
